<?xml version="1.0" encoding="UTF-8"?>
<!-- Generator: Adobe Illustrator 20.0.0, SVG Export Plug-In . SVG Version: 6.00 Build 0)  -->
<svg version="1.1" id="Layer_1" xmlns="http://www.w3.org/2000/svg" xmlns:xlink="http://www.w3.org/1999/xlink" x="0px" y="0px" viewBox="0 0 792 343.9" style="enable-background:new 0 0 792 343.9;" xml:space="preserve">
<style type="text/css">
	.st0{fill:#04AA6D; color:#fff}
</style>
<g id="XMLID_431_">
	<path id="XMLID_451_" class="st0" d="M352,109.8c-3.8-2.9-1.5-13.4-0.3-18.3c1.2-5,3.8-11.3,4.2-12.4c0.2-0.6,0.5-0.9,0.7-1.2   c0.3-0.3,0.6-0.4,0.9-0.3c0.5,1,0.4,1.2,0.4,1.2s-1.8,4.4-3.4,10.1c-1.7,5.9-3.6,14.1-0.3,15.9c1.2,0.7,1.9,0.3,2.5-0.5   c0.3-0.4,0.5-0.9,0.8-1.5l0.6-1.6c0.5-0.7,0.7-0.9,0.9-0.8c0.4,0.2,0.6,0.7,0.3,2.1C358.5,108.7,356.2,113,352,109.8 M420.1,82.6   c-0.8,0.3-3.1,0.7-3.5-1.8c-0.2-1.3,0-2.7,0.3-3.7c0.3-1,0.8-2,0.8-2c0.3,0.2,4.5,3,7.3,9.2c0.7-3,1.6-6.2,2-7.4   c0.5-1.4,2.6-5.2,6.3,0.4c-0.1,0.7-0.6,1.5-1,2.2l-1.1,1.6c-0.3-0.5-1.5-2.4-2-2.4c-0.5-0.1-0.9,0.5-1.1,1.2l-2,8.2   c-0.5,1.2-0.9,1.8-1.4,2.1C424.5,90.2,421.3,84.4,420.1,82.6 M439.1,157.2c-0.7-0.4-1-0.4-1.2-0.1c-0.7,0.8-1,1.3-1,1.3   c-0.8,0.1-0.9-0.1-0.9-0.3l0.6-1.6l0.5-1.1c0.2-0.2,1-1.4,2.4-1c0.4,0.1,0.6,0.3,0.9,0.5c1.1,1.1,1.5,1.6,2.4,2l-0.9,2.6   c-0.3-0.1-2.8-0.7-4.3,0.8c0.3,1.9,0.8,5.6,1,6.3c0.1,0.4,0.3,1.6,0.3,2.9c0,1.3-0.1,2.9-0.9,4c-0.8-1.7-2-10.6-2.1-11.6   c-0.2-1,0.6-3.2,1.2-3.8C437.4,158,438.3,157.5,439.1,157.2 M504.6,86.1c2.3-1.6,4.5,0.3,4.2,2.7c-0.3,2.3-1.8,5.4-5.6,6.5   c-1.8,0.6-3,0.4-3.8,0c-0.4-0.2-0.7-0.5-0.9-0.7c-0.9-1-1.7-1.4-3.2-0.3c-0.8,0.6-2.4,2.1-4.2,3.5c-1.9,1.4-4,2.8-6.1,3.3   c-3.8,0.9-5.1,1.2-5.5,1c-0.2-0.7-0.1-0.8,0-0.9c0.2-0.2,0.5-0.4,0.8-0.5c0.5-0.2,6.7-3.3,9.6-5.6c1.5-1.2,2.9-2.6,4.3-3.7   c1.3-1.1,2.6-2,3.8-2.1c0.9-0.1,1.4,0.1,1.8,0.5l0.8,0.9C501.9,89,503.5,86.9,504.6,86.1 M504.6,90.8c0.7-0.3,1.4-0.7,1.8-1   c0.3-0.7-0.5-1.3-1.7-0.3c-0.7,0.6-1.4,1.3-1.9,1.9C503.2,91.3,503.8,91.1,504.6,90.8 M515,168.6c-1.3,0.1-2.1-0.1-1.6-1.1   c0.4-0.7,0.8-1.3,1.2-1.9l0.7-0.9c0,0,4.4-1.7,27.4-9.8l0.9-0.3c-1.7,2.4-2.8,4.3-2.8,4.3l-25.4,9.5L515,168.6z M578.2,128.7   c0.4,10.9-2.9,16.2-5.1,19.5l-0.6,0.8l0-1c0.1-2.8,0.3-6.1,0.2-9.7c-0.1-3.6-0.4-7.5-0.5-11.2c-0.3-7.6-3.3-49.4-3.3-50.8   c0-1.2-0.9-2.8-0.9-2.8l4.4-7.9c1.7,4.4,7.8,21.4,8.6,24.4c0.5,2,0.2,2.9-0.5,3c-0.7,0.1-1.5-0.5-1.8-0.9c-0.3-0.4-0.6-0.8-1-1.2   l-1.2-1.2c-0.4,0.2-0.5,0.5-0.5,0.9C576.4,97.4,577.7,118,578.2,128.7 M545.5,134.4c0.3,0.5,0.7,1,1.2,1.6c1,1,2.6,2,5.1,2   c0-0.9-0.3-2.5-2.3-3.1c-1.6-0.5-2.8-0.5-3.6-0.5C545.7,134.4,545.6,134.4,545.5,134.4 M494.4,139.5c12.4,1.7,26.5-6.3,29.5-8.3   c-1-2.7-4.3-10.5-10.3-10.6C504.6,120.4,496.3,135.7,494.4,139.5 M528.6,125.9c-0.2,2.3-0.6,5.2-1,6.9c3.2-1.3,8.5-3.1,11.2-4   c-1.5-26.2-2.8-43.7-3.8-52.3c0-1.1-0.9-2.8-0.9-2.8l4.2-7.7c2,3.6,8.1,21.2,8.9,24.2c0.5,2,0.2,2.9-0.5,3   c-0.7,0.1-1.5-0.5-1.8-0.9c-0.5-0.8-1.1-1.6-2-2.5c-0.5,0.2-0.6,0.6-0.6,1c0.3,4.7,1.6,22.3,2.3,36.2l0.8-0.2   c0.9-0.2,2.2-0.3,3.6-0.3c2.7,0,6.1,0.8,7.8,3.8c0.3,0.7,0.4,1,0.4,1.4c0.1,0.8,0,1.9-0.4,3.4c-0.9,3.6-2.4,7.4-4.1,8.8   c-1,0.8-3.2,2.3-7.7,0.5c-4-1.6-5.3-6.4-5.7-8.4c-1.9,0.6-6,1.8-11.2,3.8c-3,1.1-9.6,3.8-16.8,5.6c-6.9,1.8-14.5,3-20,1.3   c-0.7,1.9-1.3,3.9-1.4,4.1c-0.1,0.4-0.6,0.7-1,0.9c-0.5,0.2-1.2,0-1.3-0.9c-0.2-0.8,0.3-3.6,0.9-5.4l-0.7-0.4   c-0.5-0.3-1-0.8-1.5-1.5c-0.9-1.2-1.6-2.9-1.8-5.6c-3.9,2.5-12,6.4-26.7,7.8c-10.3,1-24.5-1.7-32-6c-0.1,1.5-0.2,2.5-0.4,3.5   c-0.3,1.2-0.6,2.3-1.2,3.8c-1.5,4.4-2.1,5.6-2.6,6.2c-0.5,0.7-10.9,11.9-33.4,18.6c-3.6,0.1-29.8,2.1-29.8,2.1   c-0.1-0.6,0.3-0.8,0.7-1c0.4-0.2,1-0.4,1.6-0.6c1.4-0.4,3.4-1,5.9-1.8c4.9-1.5,11.6-3.5,18.7-6.1c14.2-5.1,29.8-12.2,36.1-20.2   c0-1.1-1.3-8.5-5.8-18.2c0.6-2.4,3.1-8.8,3.1-8.8c0.6,1.7,3.2,9.6,7,12.9c1,0.8,2,1.7,3.2,2.6c1.2,0.9,2.7,1.7,4.6,2.5   c3.8,1.5,9.4,2.7,18.3,2.8c17.9,0.2,31.5-4.9,35.7-9.9c0.2-0.2,1.1-0.6,1.7-0.2c0.4,0.7,0.5,1.2,0.2,1.8c-0.2,0.4-0.5,1.1-0.8,1.9   c-0.3,0.8-0.5,1.4-0.4,1.8c0,0.3,0.1,0.6,0.2,1c0.1,0.4,0.2,0.8,0.5,1.3c0.4,0.8,1,1.6,2.2,2.3l0.3-0.7c0.4-0.8,0.9-1.9,1.6-3.2   c1.4-2.6,3.3-6,5.7-9.4c4.6-6.6,11.1-13.3,17.9-12.1C523.8,114,528.8,122.4,528.6,125.9 M348.1,117c0.6-0.5,1.1-0.8,1.6-0.6   c1,0.3,1.2,1.1,0.8,2.2c-0.2,0.5-1.5,4.2-2.4,8.6c-0.9,4.5-1.3,9.7,0.3,13.2c3.2,7.2,12.6,15.4,31.1,7.9   c17-6.9,21.3-11.2,22.8-13.3c-0.7-0.3-1.9-0.7-4-0.7c-1.5,0-6.5,0.2-11.2-0.7c-4.6-0.8-9.4-2.8-9.5-7.6c0-9.2,6.7-17.5,13.7-23.1   c0.6-0.5,2.7-1.9,4.9-2.6c2.2-0.7,4.9-0.5,6.3,2.5c-0.5,3.1-2.2,7.7-2.2,7.7l-1.1-1.4c-0.2-0.2-0.5-0.5-1-0.7   c-0.9-0.4-2.4-0.6-4.7,0.6c-5.2,2.8-10.7,11-11.6,13.2c1.4,1.8,3.4,3.1,7,3.4c2,0.2,5.3,0.1,8.4,0.2c3,0.1,6,0.3,7.1,1   c2.2,1.5,3.4,3.9,1.4,10.4c-2.1,6.7-10.2,12-15.2,14.4c-5,2.4-21,10-33.1,6c-11.5-3.8-17.9-14-12-33.7   C345.8,123.2,348.1,117,348.1,117 M620.2,82.6c-0.8,0.3-3.1,0.7-3.5-1.8c-0.2-1.3,0-2.7,0.3-3.7c0.3-1,0.8-2,0.8-2   c0.3,0.2,4.5,3,7.4,9.2c0.7-3,1.6-6.2,2-7.4c0.5-1.4,2.6-5.2,6.3,0.4c-0.1,0.7-0.6,1.5-1,2.2l-1.1,1.6c-0.3-0.5-1.5-2.4-2-2.4   c-0.5-0.1-0.9,0.5-1.1,1.2l-2,8.2c-0.5,1.2-0.9,1.8-1.4,2.1C624.7,90.2,621.4,84.4,620.2,82.6 M725.2,111.8   c-3-2.2-1.2-10.4-0.3-14.1c1-3.9,2.9-8.7,3.2-9.5c0.2-0.4,0.4-0.7,0.6-0.9c1.1-0.1,1.1,0.3,1.2,0.4c0,0.4-1.4,3.8-2.6,8.2   c-1.3,4.5-2.7,10.8-0.3,12.1c0.9,0.5,1.4,0.2,1.8-0.3c0.2-0.3,0.4-0.7,0.6-1.1l0.5-1.2c1-0.6,1.1-0.4,1.1-0.1c0,0.2,0,0.6-0.1,1.2   C730.3,110.9,728.5,114.3,725.2,111.8 M712.9,79.8c0,0-4,4.9-5.2,6.4c-12.9,3.6-69.5,23.8-69.5,23.8l3.2-6.5L712.9,79.8z    M722.2,132.9c-2.4,5.7-9.5,6.6-12.6,6.1c0.1,3.8-0.9,8.7-3.5,15.3c-2.5,4.5-11.1,9.4-18.7,13.2c-7.7,3.8-14.9,6.5-14.9,6.5   s-23.9,2-28.9,1.7c54.8-16.2,61-28.2,61.8-29.8c0-3.4-5.7-17.1-5.7-17.2c-0.1-0.3,0.4-1.7,2.4-7.1c5.3,10.1,7.8,9.9,9.2,9.6   c6.8-1.8,7.8-3.5,8.2-4.2c0.2-0.4,0.4-1.8,0.6-3.6l0.3-2.6c0.1-0.9,0.3-1.6,0.4-2.2c0.7-2.4,2.3-2.7,3.3-2c1.3,1.2,2.1,4.2,2.7,7.3   c0.6,3.2,0.9,6.8,1.2,9.8c0.6,5.6,3.1,10.6,10.7,9.7c4-0.5,6.5-1.6,7.9-2.6c0.7-0.5,1.1-0.9,1.4-1.2c0-11.9-4.1-61.7-4.1-62.9   c0-1.2-0.9-2.8-0.9-2.8l4.2-7.7c2,3.6,7.9,21.2,8.7,24.2c0.5,2,0.2,2.9-0.5,3c-0.7,0.1-1.5-0.5-1.8-0.9c-0.3-0.4-0.6-0.8-1-1.2   l-1.2-1.2c-0.4,0.2-0.5,0.5-0.5,0.9c0.7,5.3,2.2,27.8,2.8,42.1c0.1,3.6-1,6.9-2.2,9.3c-0.6,1.2-1.2,2.2-1.6,2.8   c-0.2,0.3-0.4,0.6-0.6,0.8c-0.2,0.2-0.3,0.3-0.3,0.3c-9.2,7.3-18.3,4.9-21.6,1.3c-1.7-1.8-2.6-5-3.1-7.9c-0.5-3-0.7-5.9-0.8-7.4   c-0.1-1.9-0.4-3.3-0.9-4.8C722.6,128.9,722.3,131.1,722.2,132.9 M774.6,141.5c0.4,11-4.5,18.6-6.6,21.9c0.4-5.7,1.1-16.1,1.1-23.7   c0-7.6-4.5-62-4.5-63.3c0-1.2-0.9-2.8-0.9-2.8l4.2-7.7c2,3.6,8,21.2,8.7,24.2c0.5,2,0.2,2.9-0.5,3c-0.7,0.1-1.5-0.5-1.8-0.9   c-0.3-0.4-0.6-0.8-1-1.2l-1.2-1.2c-0.4,0.2-0.5,0.5-0.5,0.9C772.5,97.3,774.2,130.8,774.6,141.5 M689.6,136.8   c-11.3,10.8-29.4,13.7-48,14.7c-9.4,0.5-15.6-0.6-20.2-2.3c-2.3-0.9-4.1-1.9-5.7-2.9c-1.5-1-2.8-2.1-4-3c-2.5-2-4.2-5.3-5.2-8   c-0.2-0.6-0.5-1.2-0.6-1.7c-5.4,11.7-22.5,22.8-30.5,26c-8.3,3.3-14.3,0-16.2-7.5c-1.8-7.4,2.7-17.6,3.8-19.7   c0.5-1,0.9-2.2,1.2-3.1l0.5-1.7l0.2-0.2c0.4-0.4,0.8-0.6,1.2-0.9c1.4,0.9,1.3,2.1,1,3c-0.2,0.9-0.6,1.8-0.8,2.5   c-0.3,0.7-1.2,2.3-2,4.7c-0.9,2.3-1.8,5.4-2.3,9.1c-1,6.8,5.7,8.4,8.7,7.4c21.4-8.4,31.1-22,32.6-25.9c-1.3-12-10.9-34.8-10.9-34.9   c-0.1-0.2,0.4-5.5,1.4-11.1c8.3,10,11.7,27.7,12.4,33c0.7,5.3,3.4,17.4,5,19.8c10.9,15.5,44.6,9.1,56.4,6.4   c10.9-2.5,18.5-8.3,20.2-9.9c-0.4-1.9-1.4-4.1-2.4-5.9c-1-1.9-2.1-3.5-2.1-3.5l2.4-8.6c6.8,9.5,6.4,14,5.9,16.5   C691.3,131.2,690.9,132.3,689.6,136.8L689.6,136.8z M627.5,164.4l-5.5,7l-7.4-6l5.6-6.9L627.5,164.4z M726.7,162l-5.5,7l-7.4-6   l5.6-6.9L726.7,162z M640,164.4l-5.5,7l-7.4-6l5.6-6.9L640,164.4z"/>
	<rect id="XMLID_450_" x="346.7" y="190.8" class="st0" width="428.7" height="7.1"/>
	<path id="XMLID_449_" class="st0" d="M74.5,122.9c-45.2,46.4-55,98.4-25.9,126.2c5.3,5.3,12.1,9.5,19.9,12.6   c11.3,4.6,24.2,6.6,38.1,6.3c20-0.2,42.3-5,64.4-14.6c33.7-14.7,58.7-36.8,70.7-59.7c6.1-8.8,12.5-37.8-2.3-50.9   c-1.6-1.4-3.3-2.8-4.9-4.1c-1.5,3.5-8.7,18.7-12.2,26.5c-20.4,2.3-56-25-49.1-28c9.1-4.1,19.8-8.9,27.8-12.4c0.4-0.2,0.4-0.5,0-0.6   c-57.1-10.5-123.5,41.2-143.5,63.2C73.2,134.3,205.5,45.4,280.1,62.8c0,0,0.2,0,0.3-0.1c7.3-5.4,20.5-12.4,38.6-10.1   c-1.5,6.8-5.6,17-10.6,24.3c-0.1,0.1-0.1,0.3,0,0.4c13.1,13.2,9.4,37.2-5.5,64.3c-15.1,30.6-40.8,62.5-74.7,90.1   c-76.3,62-165.4,78.6-199,37c-1-1.3-2-2.6-2.9-4c-24-32.3-8.9-89.1,40.3-139.7C78.5,113,91.4,102,105,92.5c0.1-0.1,0.1-0.1,0.2-0.1   c21.5-15.2,48.7-30.4,80.9-39.8l1.1-0.3l-0.9,1.1l-0.8,0.3c-0.6,0.2-1.5,0.6-2.6,1c-2.3,0.9-5.6,2.2-9.8,4   c-8.3,3.6-19.8,8.9-32.7,16c-10.4,5.7-21.7,12.6-32.9,20.5C95.7,103.4,84.6,112.6,74.5,122.9"/>
	<path id="XMLID_432_" class="st0" d="M715.8,271.9c-4.5,0-7.9-1.4-11.6-3.9l-0.1-1.5l-1,0.4c0.3,0.4,0.7,0.8,1,1l0.3,5.3l-2.9,0.1   l-1-21.3l3.5-0.2l0.2,4c0.4,7.7,5.5,12.5,11.4,12.5c5.6,0,9.3-3.6,9.3-9c0-5.3-4.5-8.5-10-11.9c-5.9-3.6-12.9-7.8-12.9-16.6   c0-7.6,6.2-12.4,14.9-12.4c4.1,0,7.1,1.3,9.4,2.9l-0.2-4.3h3l0.9,18.7l-3.5,0.2l-0.2-4.1c-0.3-5.1-3.2-9.8-9.3-9.8   c-5.1,0-7.7,2.5-7.7,7.3c0,5,4.3,7.7,9.9,11.1c6.1,3.7,13.4,8.4,13.4,17.8C732.5,266.6,725.5,271.9,715.8,271.9 M704.2,268   c-0.4-0.3-0.8-0.7-1.1-1.1l1-0.4l0.1,1.2L704.2,268z M649.8,243.9c0,13.8,8.7,24.5,18.8,24.5c10.8,0,18.3-8.5,18.3-21.9   c0-13.8-8.7-24.5-18.8-24.5C657.3,222,649.8,230.5,649.8,243.9 M695.3,245.1c0,14.8-12,26.8-26.8,26.8c-16.1,0-27-10.8-27-26.8   c0-14.8,12.1-26.7,27-26.7C684.5,218.4,695.3,229.1,695.3,245.1 M606.5,225.1v26.3l8-0.2c8.7,0,13.4-5.3,13.4-14.4   c0-9.1-4.7-14.2-13.4-14.2h-8.3C606.4,223.4,606.5,224.2,606.5,225.1 M592.7,221.9V219h23.1c11.8,0,20,7.1,20,17.9   c0,10.8-8.2,17.8-20,17.8h-9.2v11.2c0,0.7,0,1.3,0.1,1.7c0.1,0.4,0.1,0.5,0.2,0.6c0.1,0.1,0.2,0.2,0.6,0.2c0.4,0.1,1,0.1,1.7,0.1   h3.6v2.9h-20.1v-2.9h3.6c0.7,0,1.3,0,1.7-0.1c0.4,0,0.5-0.1,0.6-0.2c0.1-0.1,0.1-0.2,0.2-0.6c0.1-0.4,0.1-1,0.1-1.7v-41.4   c0-0.7,0-1.3-0.1-1.7c0-0.4-0.1-0.5-0.2-0.6c-0.1-0.1-0.2-0.1-0.6-0.2c-0.4,0-1-0.1-1.7-0.1H592.7z M543.7,268.4   c0.4,0,0.5-0.1,0.6-0.2c0.1-0.1,0.1-0.2,0.2-0.6c0.1-0.4,0.1-1,0.1-1.7v-43.3h-3c-6.3,0-7.9,1-8.3,6.9l-0.3,4l-3.5-0.2l1.2-18.4   l3.1,0.2l-0.3,4h29.9L563,215l3.1-0.2l1.2,18.4l-3.5,0.2l-0.3-4c-0.4-5.9-2-6.9-8.3-6.9h-2.9v43.3c0,0.7,0,1.3,0.1,1.7   c0,0.4,0.1,0.5,0.2,0.6c0.1,0.1,0.2,0.2,0.6,0.2c0.4,0.1,1,0.1,1.7,0.1h6.3v2.9h-25.6v-2.9h6.4   C542.8,268.4,543.3,268.4,543.7,268.4 M496.3,225.1v26.3l8-0.2c8.7,0,13.4-5.3,13.4-14.4c0-9.1-4.6-14.2-13.4-14.2H496   C496.2,223.4,496.3,224.2,496.3,225.1 M482.5,221.9V219h23.1c11.8,0,20,7.1,20,17.9c0,10.8-8.2,17.8-20,17.8h-9.2v11.2   c0,0.7,0,1.3,0.1,1.7c0.1,0.4,0.1,0.5,0.2,0.6c0.1,0.1,0.2,0.2,0.6,0.2c0.4,0.1,1,0.1,1.7,0.1h3.6v2.9h-20.1v-2.9h3.6   c0.7,0,1.3,0,1.7-0.1c0.4,0,0.5-0.1,0.6-0.2c0.1-0.1,0.1-0.2,0.2-0.6c0.1-0.4,0.1-1,0.1-1.7v-41.4c0-0.7,0-1.3-0.1-1.7   c0-0.4-0.1-0.5-0.2-0.6c-0.1-0.1-0.2-0.1-0.6-0.2c-0.4,0-1-0.1-1.7-0.1H482.5z M461.5,241.3l8.4-16.2c0.6-1.1,0.9-2,0.9-2.5   c0-0.2-0.1-0.4-0.2-0.5c-0.2-0.1-0.6-0.3-1.6-0.3h-5.3V219h15.7v2.9H477c-1.2,0-1.7,0.5-3.6,4.3l-10.2,19.7v20.1   c0,0.7,0,1.3,0.1,1.7c0,0.4,0.1,0.5,0.2,0.6c0.1,0.1,0.2,0.2,0.6,0.2c0.4,0.1,1,0.1,1.7,0.1h6.3v2.9h-26.3v-2.9h7.1   c0.7,0,1.3,0,1.7-0.1c0.4,0,0.5-0.1,0.6-0.2c0.1-0.1,0.1-0.2,0.2-0.6c0.1-0.4,0.1-1,0.1-1.7v-19l-10.8-20.8   c-1.8-3.5-2.4-4.3-3.6-4.3h-2.6V219h15.5v2.9h-2.9c0.4,0.7,0.9,1.5,1.3,2.3l9,17.1L461.5,241.3z M428,215.7l3-0.2l1.2,23.7   l-3.5,0.2l-0.3-5.7c-0.5-7.5-6.5-11.8-13.1-11.8c-9.4,0-16,8.4-16,21.9c0,14,7.5,24.5,16,24.5c4.2-0.1,8.3-1.7,10.9-4.9l0-8.7   c0-3.3-2.1-5.3-5.3-5.3h-9.2v-3.6h28.3v3.6H434v4.6v20.2h-2.9v-6c0-1.4-1-2.3-1.6-2.3c-0.3,0-0.7,0.1-1.2,0.6   c-3.4,3.6-8.2,5.4-13.2,5.4c-14.5,0-24.1-11-24.1-26.9c0-14.6,11.1-26.6,25-26.6c4.5,0,8.8,1.2,12.4,3.8L428,215.7z M353.3,268.4   c0.4,0,0.5-0.1,0.6-0.2c0.1-0.1,0.1-0.2,0.2-0.6c0.1-0.4,0.1-1,0.1-1.7v-41.4c0-0.7,0-1.3-0.1-1.7c0-0.4-0.1-0.5-0.2-0.6   c-0.1-0.1-0.2-0.1-0.6-0.2c-0.4-0.1-1-0.1-1.7-0.1H348V219h28.9c0.4,0,0.9,0,1.4,0.1l-0.1-2.6l2.9-0.2l1.4,21.2h-3.6l-0.3-6   c-0.4-6.8-3.4-9-9.6-9h-7.7c0.3,0.7,0.6,1.6,0.6,2.5v17.1h1.6c3.6,0,6.4-0.5,6.4-6.2v-3.6h2.9V257h-2.9v-5c0-5.8-2.8-6.3-6.4-6.3   h-1.6v19.5c0,0.9-0.2,1.8-0.5,2.5l11.7,0.1c6.1,0,8.8-2.3,9.2-8.3l0.5-6.6h3.4l-1.3,21.2l-2.9-0.2l0.2-2.6   c-0.5,0.1-0.9,0.1-1.4,0.1H348v-2.9h3.6C352.3,268.4,352.9,268.4,353.3,268.4 M750.1,268.4c0.4,0,0.5-0.1,0.6-0.2   c0.1-0.1,0.1-0.2,0.2-0.6c0.1-0.4,0.1-1,0.1-1.7v-43.3h-3c-6.3,0-7.9,1-8.2,6.9l-0.3,4l-3.5-0.2l1.2-18.4l3.1,0.2l-0.3,4h29.9   l-0.3-3.9l3.1-0.2l1.2,18.4l-3.5,0.2l-0.3-4c-0.4-5.9-2-6.9-8.3-6.9h-2.9v43.3c0,0.7,0,1.3,0.1,1.7c0.1,0.4,0.1,0.5,0.2,0.6   c0.1,0.1,0.2,0.2,0.6,0.2c0.4,0.1,1,0.1,1.7,0.1h6.3v2.9H742v-2.9h6.4C749.1,268.4,749.7,268.4,750.1,268.4"/>
</g>
</svg>
